<svg xmlns="http://www.w3.org/2000/svg" viewBox="0 0 256 256">
  <g>
    <g>
      <rect x="8" y="8" width="240" height="240" rx="68.1" style="fill: #fff"/>
      <path d="M179.9,16A60.2,60.2,0,0,1,240,76.1V179.9A60.2,60.2,0,0,1,179.9,240H76.1A60.2,60.2,0,0,1,16,179.9V76.1A60.2,60.2,0,0,1,76.1,16H179.9m0-16H76.1A76.1,76.1,0,0,0,0,76.1V179.9A76.1,76.1,0,0,0,76.1,256H179.9A76.1,76.1,0,0,0,256,179.9V76.1A76.1,76.1,0,0,0,179.9,0Z" style="fill: #5ab99b"/>
    </g>
    <g>
      <path d="M135.5,109.3a46.8,46.8,0,0,0-27.6,16.1v.2A36.8,36.8,0,0,0,135.5,109.3Z" style="fill: none"/>
      <path d="M100.4,138.7a9.4,9.4,0,0,0-.6,1.8,46.1,46.1,0,0,0-2.1,11.3,45.6,45.6,0,0,0,43,47.8,46.2,46.2,0,0,0,34-12.7l4.7-5.4a45,45,0,0,0,9.2-25,45.6,45.6,0,0,0-38-47.2A50.7,50.7,0,0,1,100.4,138.7Z" style="fill: none"/>
      <path d="M141.7,92.5c3.5-43.8-56.8-57.4-72.1-15.7a36.8,36.8,0,0,0,7.5,36.5,37.3,37.3,0,0,0,13.1,9.5,10,10,0,0,0,.8-1.4A61.3,61.3,0,0,1,141.7,92.5Z" style="fill: none"/>
      <path d="M135.5,109.3h.1a35.7,35.7,0,0,0,6.1-16.7h0A61.3,61.3,0,0,0,91,121.4a10,10,0,0,1-.8,1.4,36.7,36.7,0,0,0,17.6,2.8v-.2A46.8,46.8,0,0,1,135.5,109.3Z" style="fill: #5ab99b"/>
      <path d="M204.7,157.4a61.8,61.8,0,0,0-49.9-63.8h0c-.7,6.2-1.3,8.8-4.2,15.5h0a45.6,45.6,0,0,1,38,47.2,45,45,0,0,1-9.2,25l-4.7,5.4a46.2,46.2,0,0,1-34,12.7,45.6,45.6,0,0,1-43-47.8,46.1,46.1,0,0,1,2.1-11.3,9.4,9.4,0,0,1,.6-1.8h-.5a48.8,48.8,0,0,1-15.3-4,61.6,61.6,0,0,0,91.5,71.5l46.4,1.7S202.6,192.3,204.7,157.4Z" style="fill: #5ab99b"/>
      <path d="M135.5,109.3a36.8,36.8,0,0,1-27.7,16.3c-2.9,3.4-6,9.5-7.4,13.1a50.7,50.7,0,0,0,50.2-29.4,39.6,39.6,0,0,0-5.1-.6A55.4,55.4,0,0,0,135.5,109.3Z" style="fill: #e65014"/>
      <path d="M90.2,122.8a37.3,37.3,0,0,1-13.1-9.5,36.8,36.8,0,0,1-7.5-36.5c15.3-41.7,75.6-28.1,72.1,15.7h4.7a80.1,80.1,0,0,1,8.4,1C159,33,77.8,16.2,57.1,72.5c-11.8,28.1-28.8,33-28.8,33l34,10.2c4,5.3,9.7,11.9,15.5,15.3a40.5,40.5,0,0,0,6.8,3.7l.3-.7A102.5,102.5,0,0,1,90.2,122.8Z" style="fill: #e65014"/>
      <path d="M100.4,138.7c1.4-3.6,4.5-9.7,7.4-13.1a36.7,36.7,0,0,1-17.6-2.8A102.5,102.5,0,0,0,84.9,134l-.3.7a48.8,48.8,0,0,0,15.3,4Z" style="fill: #e65014"/>
      <path d="M141.7,92.5h0a35.7,35.7,0,0,1-6.1,16.7h-.1a55.4,55.4,0,0,1,10-.6,39.6,39.6,0,0,1,5.1.6h0c2.9-6.7,3.5-9.3,4.2-15.5h0a80.1,80.1,0,0,0-8.4-1Z" style="fill: #5ab99b"/>
    </g>
  </g>
</svg>
