<?xml version="1.0" encoding="UTF-8"?>
<svg fill="none" version="1.1" viewBox="0 0 96 96" xmlns="http://www.w3.org/2000/svg">
 <g transform="matrix(3 0 0 3 145.91 -4.1616)">
  <rect x="-48.638" y="1.3872" width="32" height="32" style="fill:#fff"/>
  <g transform="matrix(.37943 0 0 .37943 -46.789 4.3646)">
   <path d="m43.545 21.035v0.0312c-7.8e-4 6e-3 -1e-3 0.0118-2e-3 0.0176-5e-3 -4.3e-4 -9e-3 -2e-3 -0.0137-2e-3v-0.0312c-3.909 0.0855-7.7358 1.1502-11.133 3.0977s-6.2574 4.7153-8.3223 8.0547l-0.3125 0.53711c2.1248 0.9047 4.4368 1.2766 6.7363 1.0859l0.0625-0.0781c2.7095-3.1979 6.4211-5.4823 10.619-6.2227h0.0156c0.0217-6e-3 0.0463-0.0189 0.0684-0.0254 1.245-0.21328 2.5085-0.29059 3.7695-0.22656 0.658 0.0472 1.317 0.1104 1.959 0.2207h-0.0176c2.966 0.496 5.7547 1.7532 8.0957 3.6504 2.34 1.8971 4.1556 4.3689 5.2676 7.1777 1.112 2.8089 1.4831 5.8595 1.0801 8.8555-0.404 2.9961-1.5678 5.8358-3.3828 8.2461l-1.8184 2.0488c-1.722 1.6724-3.7658 2.971-6.0078 3.8164-2.242 0.8455-4.6324 1.2187-7.0234 1.0977-9.618-0.5199-17.042-8.7903-16.525-18.463 0.0975-1.4846 0.3602-2.9531 0.7832-4.3789 0.047-0.1733 0.12475-0.39431 0.21875-0.66211h-0.1875c-2.016-0.2033-3.9888-0.72327-5.8438-1.543-0.6669 2.0228-1.061 4.1259-1.1738 6.2539-0.6735 13.107 9.3656 24.322 22.398 25.016 4.896 0.2615 9.7525-1.0154 13.895-3.6543l17.842 0.63086s-7.6603-6.019-6.8613-19.504c0.62675-11.999-7.7305-22.408-19.143-24.619 3e-5 -1e-3 2e-3 -2e-3 2e-3 -4e-3 -1.066-0.2028-2.1436-0.33317-3.2266-0.39257-0.627-0.0315-1.2234-0.0312-1.8184-0.0312z" style="fill:#50bfa0"/>
   <path d="m27.662 38.883c0.5482-1.3863 1.77-3.7494 2.8508-5.0726-2.2995 0.1906-4.6108-0.1824-6.7355-1.087-0.7605 1.4061-1.4454 2.8523-2.052 4.3322l-0.094 0.2835c1.855 0.8197 3.8267 1.3406 5.8427 1.5439zm-3.8847-6.1596c-1.9385-0.8199-3.668-2.0692-5.0595-3.6548-3.3521-3.7336-4.5426-9.3261-2.8822-14.131 5.8897-16.1 29.057-10.823 27.71 6.0966 0.595 0 1.19 0 1.801 0.0315 1.083 0.0594 2.161 0.191 3.227 0.3939 1.614-23.425-29.574-29.916-37.531-8.1446-4.5269 10.854-11.043 12.713-11.043 12.713l13.064 3.9541c1.5194 2.0637 3.7124 4.6 5.921 5.939 0.8465 0.5374 1.7314 1.0113 2.6472 1.4178l0.094-0.2835c0.6066-1.4799 1.2916-2.9261 2.052-4.3322zm17.403-5.1987c-1.193 1.7883-2.771 3.2825-4.618 4.371-1.848 1.0884-3.916 1.7429-6.0496 1.9146-1.0808 1.3233-2.3026 3.6863-2.8509 5.0726 8.0205 0.709 15.93-3.828 19.314-11.374-0.642-0.1103-1.3-0.1733-1.958-0.2206-1.284-0.0652-2.571 0.0141-3.837 0.2363z" style="fill:#f15a22"/>
  </g>
 </g>
</svg>
