<svg xmlns="http://www.w3.org/2000/svg" width="169.7" height="169.9" viewBox="0 0 169.7 169.9">
  <defs>
    <style>
      .cls-1 {
        fill: #fff;
      }

      .cls-2 {
        fill: #eb5b26;
      }

      .cls-3 {
        fill: none;
        stroke: #010101;
        stroke-miterlimit: 10;
        stroke-width: 0.2px;
      }
    </style>
  </defs>
  <g id="Layer_2" data-name="Layer 2">
    <g id="Layer_1-2" data-name="Layer 1">
      <g>
        <g>
          <rect class="cls-1" x="141.3" y="141.5" width="28.3" height="28.27"/>
          <rect class="cls-2" x="141.3" y="113.2" width="28.3" height="28.29"/>
          <rect class="cls-1" x="141.3" y="84.9" width="28.3" height="28.29"/>
          <rect class="cls-2" x="141.3" y="56.7" width="28.3" height="28.29"/>
          <rect class="cls-1" x="141.3" y="28.4" width="28.3" height="28.29"/>
          <rect class="cls-2" x="141.3" y="0.1" width="28.3" height="28.27"/>
          <rect class="cls-2" x="113.1" y="141.5" width="28.2" height="28.27"/>
          <rect class="cls-1" x="113.1" y="113.2" width="28.2" height="28.29"/>
          <rect class="cls-2" x="113.1" y="84.9" width="28.2" height="28.29"/>
          <rect class="cls-1" x="113.1" y="56.7" width="28.2" height="28.29"/>
          <rect class="cls-2" x="113.1" y="28.4" width="28.2" height="28.29"/>
          <rect class="cls-1" x="113.1" y="0.1" width="28.2" height="28.27"/>
          <rect class="cls-1" x="84.9" y="141.5" width="28.3" height="28.27"/>
          <rect class="cls-2" x="84.9" y="113.2" width="28.3" height="28.29"/>
          <rect class="cls-1" x="84.9" y="84.9" width="28.3" height="28.29"/>
          <rect class="cls-2" x="84.9" y="56.7" width="28.3" height="28.29"/>
          <rect class="cls-1" x="84.9" y="28.4" width="28.3" height="28.29"/>
          <rect class="cls-2" x="84.9" y="0.1" width="28.3" height="28.27"/>
          <rect class="cls-2" x="56.6" y="141.5" width="28.3" height="28.27"/>
          <rect class="cls-1" x="56.6" y="113.2" width="28.3" height="28.29"/>
          <rect class="cls-2" x="56.6" y="84.9" width="28.3" height="28.29"/>
          <rect class="cls-1" x="56.6" y="56.7" width="28.3" height="28.29"/>
          <rect class="cls-2" x="56.6" y="28.4" width="28.3" height="28.29"/>
          <rect class="cls-1" x="56.6" y="0.1" width="28.3" height="28.27"/>
          <rect class="cls-1" x="28.4" y="141.5" width="28.3" height="28.27"/>
          <rect class="cls-2" x="28.4" y="113.2" width="28.3" height="28.29"/>
          <rect class="cls-1" x="28.4" y="84.9" width="28.3" height="28.29"/>
          <rect class="cls-2" x="28.4" y="56.7" width="28.3" height="28.29"/>
          <rect class="cls-1" x="28.4" y="28.4" width="28.3" height="28.29"/>
          <rect class="cls-2" x="28.4" y="0.1" width="28.3" height="28.27"/>
          <rect class="cls-2" x="0.1" y="141.5" width="28.3" height="28.27"/>
          <rect class="cls-1" x="0.1" y="113.2" width="28.3" height="28.29"/>
          <rect class="cls-2" x="0.1" y="84.9" width="28.3" height="28.29"/>
          <rect class="cls-1" x="0.1" y="56.7" width="28.3" height="28.29"/>
          <rect class="cls-2" x="0.1" y="28.4" width="28.3" height="28.29"/>
          <rect class="cls-1" x="0.1" y="0.1" width="28.3" height="28.27"/>
        </g>
        <polygon class="cls-3" points="0.1 28.4 0.1 0.1 28.4 0.1 56.6 0.1 84.9 0.1 113.1 0.1 141.3 0.1 169.6 0.1 169.6 28.4 169.6 56.7 169.6 84.9 169.6 113.2 169.6 141.5 169.6 169.8 141.3 169.8 113.1 169.8 84.9 169.8 56.6 169.8 28.4 169.8 0.1 169.8 0.1 141.5 0.1 113.2 0.1 84.9 0.1 56.7 0.1 28.4"/>
      </g>
    </g>
  </g>
</svg>
